<svg version="1.1" id="Capa_1" xmlns="http://www.w3.org/2000/svg" xmlns:xlink="http://www.w3.org/1999/xlink" x="0px" y="0px"
	 viewBox="0 0 311.695 311.695" style="enable-background:new 0 0 311.695 311.695; fill: white;" xml:space="preserve">
<g>
	<path d="M254.567,122.312c20.501-10.937,34.491-32.537,34.491-57.35C289.058,29.142,259.916,0,224.096,0
		s-64.962,29.142-64.962,64.962c0,24.813,13.99,46.413,34.491,57.35c-20.485,10.788-34.491,32.283-34.491,57v124.884
		c0,4.143,3.357,7.5,7.5,7.5h114.924c4.143,0,7.5-3.357,7.5-7.5V179.312C289.058,154.595,275.052,133.1,254.567,122.312z
		 M174.134,64.962c0-27.549,22.413-49.962,49.962-49.962s49.962,22.413,49.962,49.962s-22.413,49.962-49.962,49.962
		S174.134,92.511,174.134,64.962z M274.058,296.695h-99.924V179.312c0-27.232,22.155-49.388,49.388-49.388h1.149
		c27.231,0,49.387,22.155,49.387,49.388V296.695z"/>
	<path d="M132.11,120.242h0.895c9.073,0,17.788,3.329,24.539,9.374c3.087,2.765,7.829,2.502,10.59-0.584
		c2.764-3.085,2.502-7.827-0.584-10.59c-9.505-8.513-21.773-13.2-34.545-13.2h-0.447c-20.54,0-37.251-16.711-37.251-37.251
		s16.711-37.251,37.251-37.251c3.433,0,6.827,0.465,10.091,1.381c3.988,1.12,8.128-1.206,9.248-5.193s-1.205-8.128-5.193-9.248
		c-4.583-1.287-9.342-1.939-14.146-1.939c-28.812,0-52.251,23.439-52.251,52.251c0,18.894,10.081,35.478,25.146,44.656
		c-15.054,9.073-25.146,25.578-25.146,44.399v97.259c0,4.143,3.357,7.5,7.5,7.5h44.046c4.143,0,7.5-3.357,7.5-7.5
		s-3.357-7.5-7.5-7.5H95.307v-89.759C95.307,136.752,111.816,120.242,132.11,120.242z"/>
	<path d="M77.421,112.047c-5.155-2.504-10.692-3.773-16.458-3.773h-0.306c-12.693,0-23.02-10.327-23.02-23.021
		s10.326-23.021,23.02-23.021c4.143,0,7.5-3.357,7.5-7.5s-3.357-7.5-7.5-7.5c-20.964,0-38.02,17.056-38.02,38.021
		c0,12.441,6.007,23.506,15.272,30.446c-9.26,6.878-15.272,17.894-15.272,30.289v66.331c0,4.143,3.357,7.5,7.5,7.5h26.856
		c4.143,0,7.5-3.357,7.5-7.5s-3.357-7.5-7.5-7.5H37.638v-58.831c0-12.525,10.189-22.715,22.715-22.715h0.61
		c3.477,0,6.81,0.763,9.905,2.266c3.73,1.812,8.214,0.256,10.022-3.47C82.7,118.344,81.146,113.856,77.421,112.047z"/>
</g>
<g>
</g>
<g>
</g>
<g>
</g>
<g>
</g>
<g>
</g>
<g>
</g>
<g>
</g>
<g>
</g>
<g>
</g>
<g>
</g>
<g>
</g>
<g>
</g>
<g>
</g>
<g>
</g>
<g>
</g>
</svg>
