<svg version="1.1" id="Layer_1" xmlns="http://www.w3.org/2000/svg" xmlns:xlink="http://www.w3.org/1999/xlink" x="0px" y="0px"
	 viewBox="0 0 512 512" style="enable-background:new 0 0 512 512; fill: white;" xml:space="preserve">
<g>
	<g>
		<path d="M372.364,128c-6.982,0-11.636,4.655-11.636,11.636v23.273c0,6.982,4.655,11.636,11.636,11.636S384,169.891,384,162.909
			v-23.273C384,132.655,379.345,128,372.364,128z"/>
	</g>
</g>
<g>
	<g>
		<path d="M372.364,244.364c-6.982,0-11.636,4.655-11.636,11.636v46.545c0,6.982,4.655,11.636,11.636,11.636
			S384,309.527,384,302.545V256C384,249.018,379.345,244.364,372.364,244.364z"/>
	</g>
</g>
<g>
	<g>
		<path d="M418.909,174.545c6.982,0,11.636-4.655,11.636-11.636v-128C430.545,15.127,415.418,0,395.636,0H116.364
			C96.582,0,81.455,15.127,81.455,34.909v174.545c0,6.982,4.655,11.636,11.636,11.636h314.182v221.091
			c0,6.982-4.655,11.636-11.636,11.636H116.364c-6.982,0-11.636-4.655-11.636-11.636V256c0-6.982-4.655-11.636-11.636-11.636
			c-6.982,0-11.636,4.655-11.636,11.636v186.182c0,19.782,15.127,34.909,34.909,34.909v23.273c0,6.982,4.655,11.636,11.636,11.636
			h209.455c6.982,0,11.636-4.655,11.636-11.636s-4.655-11.636-11.636-11.636H139.636v-11.636h232.727v23.273
			c0,6.982,4.655,11.636,11.636,11.636s11.636-4.655,11.636-11.636v-23.273c19.782,0,34.909-15.127,34.909-34.909V209.455
			c0-6.982-4.655-11.636-11.636-11.636H104.727V34.909c0-6.982,4.655-11.636,11.636-11.636h279.273
			c6.982,0,11.636,4.655,11.636,11.636v128C407.273,169.891,411.927,174.545,418.909,174.545z"/>
	</g>
</g>
<g>
</g>
<g>
</g>
<g>
</g>
<g>
</g>
<g>
</g>
<g>
</g>
<g>
</g>
<g>
</g>
<g>
</g>
<g>
</g>
<g>
</g>
<g>
</g>
<g>
</g>
<g>
</g>
<g>
</g>
</svg>
